<svg id="Monogram" viewBox="0 0 818.1717 944.7434">
   <style>
      path { fill: rgb(  0,   0, 255); }
   </style>
   <g id="Initials">
      <path id="Letter_H" data-name="Letter H" d="M608.4651,692.9494v-200.547h-186.4838v200.547h-53.4997V251.8072h53.4997v191.0696h186.4838V251.8072h53.4992v441.1421h-53.4992Z" />
      <g id="Small_Initials" data-name="Small Initials">
         <path id="Letter_A" data-name="Letter A" d="M272.6233,400.2351h-72.417l-18.1764,59.7226h-25.8225l67.0801-208.1637h27.1203l67.0796,208.1637h-26.8317l-18.0324-59.7226Zm-65.7813-21.7829h59.1455l-29.1399-96.0759h-.7212l-29.2844,96.0759Z" />
         <path id="Letter_K" data-name="Letter K" d="M156.8642,692.8256v-208.1642h28.6312v103.577h2.1514l96.649-103.577h34.0924l-88.3746,92.0369,96.9802,116.1273h-36.2438l-80.4308-96.508-24.8239,25.6779v70.8301h-28.6312Z" />
      </g>
   </g>
   <g id="Hexagon">
      <g id="Inside_Hexagon" data-name="Inside Hexagon">
         <path d="M409.0859,83.6972l336.602,194.3373v388.6744l-336.602,194.3373L72.4838,666.7089V278.0345L409.0859,83.6972m0-23.094L52.4838,266.4876v411.7683l356.602,205.8843,356.602-205.8843V266.4876L409.0859,60.6033h0Z" />
      </g>
      <g id="Outside_Hexagon" data-name="Outside Hexagon">
         <path d="M409.0859,11.547l399.0859,230.4124v460.8247l-399.0859,230.4124L10,702.7841V241.9594L409.0859,11.547m0-11.547L0,236.1859v472.3717l409.0859,236.1859,409.0859-236.1859V236.1859L409.0859,0h0Z" />
      </g>
   </g>
</svg>
